<?xml version="1.0" standalone="no"?><!DOCTYPE svg PUBLIC "-//W3C//DTD SVG 1.1//EN" "http://www.w3.org/Graphics/SVG/1.1/DTD/svg11.dtd"><svg t="1740731595554" class="icon" viewBox="0 0 1024 1024" version="1.1" xmlns="http://www.w3.org/2000/svg" p-id="6414" xmlns:xlink="http://www.w3.org/1999/xlink" width="200" height="200"><path d="M369.6 790.4h281.6c16 0 28.8 11.2 28.8 27.2 0 14.4-11.2 27.2-28.8 27.2H369.6c-16 0-28.8-11.2-28.8-27.2s11.2-27.2 28.8-27.2m259.2 97.6H393.6c-3.2 0-6.4 6.4-1.6 9.6l86.4 44.8c9.6 3.2 20.8 8 35.2 8 11.2 0 20.8-3.2 32-8l86.4-44.8c3.2-3.2 1.6-9.6-3.2-9.6z m-123.2-624c35.2 0 65.6 12.8 96 41.6 30.4 27.2 44.8 60.8 44.8 104 0 12.8 11.2 28.8 28.8 28.8 16 0 28.8-12.8 28.8-28.8 0-60.8-19.2-108.8-59.2-145.6s-86.4-54.4-137.6-54.4c-16 0-28.8 11.2-28.8 28.8 1.6 12.8 12.8 25.6 27.2 25.6z" fill="#FFB902" p-id="6415"></path><path d="M636.8 740.8H385.6c-28.8 0-51.2-20.8-56-49.6-3.2-6.4-12.8-19.2-17.6-22.4-83.2-64-131.2-160-131.2-262.4 0-182.4 147.2-329.6 329.6-329.6S840 224 840 406.4c0 105.6-48 201.6-132.8 265.6-3.2 3.2-12.8 16-17.6 22.4-1.6 22.4-24 46.4-52.8 46.4z m-246.4-59.2h243.2c6.4-24 28.8-51.2 41.6-60.8 68.8-51.2 108.8-132.8 108.8-219.2 0-150.4-121.6-272-272-272s-272 121.6-272 272c0 86.4 40 164.8 108.8 217.6 9.6 9.6 35.2 36.8 41.6 62.4z" fill="#1B1B1B" p-id="6416"></path></svg>