<?xml version="1.0" standalone="no"?><!DOCTYPE svg PUBLIC "-//W3C//DTD SVG 1.1//EN" "http://www.w3.org/Graphics/SVG/1.1/DTD/svg11.dtd"><svg t="1740731684113" class="icon" viewBox="0 0 1024 1024" version="1.1" xmlns="http://www.w3.org/2000/svg" p-id="5472" xmlns:xlink="http://www.w3.org/1999/xlink" width="200" height="200"><path d="M541.2864 717.6192H113.0496c-24.1664 0-43.3152-19.6608-43.3152-43.3152 0-24.1664 19.6608-43.3152 43.3152-43.3152h428.2368c24.1664 0 43.3152 19.6608 43.3152 43.3152 0 24.1664-19.1488 43.3152-43.3152 43.3152z" fill="#E3F4FF" p-id="5473"></path><path d="M542.4128 872.1408h-6.144c-42.7008 0-77.0048-34.304-77.0048-77.0048s34.304-77.0048 77.0048-77.0048h6.144v-87.1424H141.7216v87.1424h146.1248c42.7008 0 77.0048 34.304 77.0048 77.0048s-34.304 77.0048-77.0048 77.0048H141.7216v87.1424h400.6912v-87.1424z" fill="#E3F4FF" p-id="5474"></path><path d="M727.3472 872.1408H113.0496c-24.1664 0-43.3152 19.6608-43.3152 43.3152 0 24.1664 19.6608 43.3152 43.3152 43.3152h614.2976v-86.6304zM743.1168 872.1408h37.0688v87.1424h-37.0688zM824.6272 872.1408h23.6544v87.1424h-23.6544zM915.6608 872.1408h-55.0912v87.1424h55.0912c24.1664 0 43.3152-19.6608 43.3152-43.3152-0.1024-24.1664-19.1488-43.8272-43.3152-43.8272z" fill="#E3F4FF" p-id="5475"></path><path d="M885.4528 848.4864c-12.9024 0-23.6544-10.6496-23.6544-23.6544 0-12.9024 10.6496-23.6544 23.6544-23.6544s23.6544 10.6496 23.6544 23.6544c-0.1024 13.0048-10.752 23.6544-23.6544 23.6544z m0-37.0688c-7.2704 0-13.5168 6.144-13.5168 13.5168 0 7.2704 6.144 13.5168 13.5168 13.5168 7.2704 0 13.5168-6.144 13.5168-13.5168 0-7.3728-6.2464-13.5168-13.5168-13.5168zM598.4256 265.4208c-18.0224 0-32.8704-14.848-32.8704-32.8704s14.848-32.8704 32.8704-32.8704 32.8704 14.848 32.8704 32.8704-14.848 32.8704-32.8704 32.8704z m0-51.5072c-10.1376 0-18.7392 8.6016-18.7392 18.7392s8.6016 18.7392 18.7392 18.7392 18.7392-8.6016 18.7392-18.7392c0-10.24-8.6016-18.7392-18.7392-18.7392zM907.776 539.4432c-12.1856 0-22.3232-10.1376-22.3232-22.3232s10.1376-22.3232 22.3232-22.3232 22.3232 10.1376 22.3232 22.3232-10.1376 22.3232-22.3232 22.3232z m0-35.1232c-6.8608 0-12.8 5.8368-12.8 12.8 0 6.8608 5.8368 12.8 12.8 12.8S920.576 524.0832 920.576 517.12c-0.1024-6.8608-5.9392-12.8-12.8-12.8z" fill="#F0841B" p-id="5476"></path><path d="M956.6208 711.3728h-43.8272c-2.7648 0-5.0176-2.2528-5.0176-5.0176s2.2528-5.0176 5.0176-5.0176h43.8272c2.7648 0 5.0176 2.2528 5.0176 5.0176s-2.1504 5.0176-5.0176 5.0176z" fill="#52B3E6" p-id="5477"></path><path d="M934.7072 733.2864c-2.7648 0-5.0176-2.2528-5.0176-5.0176v-43.8272c0-2.7648 2.2528-5.0176 5.0176-5.0176s5.0176 2.2528 5.0176 5.0176v43.8272c0.1024 2.2528-2.1504 5.0176-5.0176 5.0176zM357.7856 270.5408h-43.8272c-2.7648 0-5.0176-2.2528-5.0176-5.0176s2.2528-5.0176 5.0176-5.0176h43.8272c2.7648 0 5.0176 2.2528 5.0176 5.0176s-2.1504 5.0176-5.0176 5.0176z" fill="#52B3E6" p-id="5478"></path><path d="M335.872 292.4544c-2.7648 0-5.0176-2.2528-5.0176-5.0176v-43.8272c0-2.7648 2.2528-5.0176 5.0176-5.0176s5.0176 2.2528 5.0176 5.0176v43.8272c0.1024 2.1504-2.1504 5.0176-5.0176 5.0176zM140.5952 563.5072h-63.488c-4.096 0-7.3728-3.2768-7.3728-7.3728s3.2768-7.3728 7.3728-7.3728h63.488c4.096 0 7.3728 3.2768 7.3728 7.3728s-3.2768 7.3728-7.3728 7.3728z" fill="#52B3E6" p-id="5479"></path><path d="M108.8512 595.2512c-4.096 0-7.3728-3.2768-7.3728-7.3728v-63.488c0-4.096 3.2768-7.3728 7.3728-7.3728s7.3728 3.2768 7.3728 7.3728v63.488c0 3.2768-3.2768 7.3728-7.3728 7.3728z" fill="#52B3E6" p-id="5480"></path><path d="M966.2464 320.7168c0 20.7872-14.0288 37.0688-31.4368 37.0688 17.408 0 31.4368 16.896 31.4368 37.0688 0-20.7872 14.0288-37.0688 31.4368-37.0688-17.408 0-31.4368-16.7936-31.4368-37.0688zM138.8544 219.4432c0 16.6912-11.264 29.7984-25.2928 29.7984 14.0288 0 25.2928 13.5168 25.2928 29.9008 0-16.6912 11.264-29.7984 25.2928-29.7984-14.0288-0.1024-25.2928-13.6192-25.2928-29.9008zM183.3984 433.0496c0 12.6976-8.6016 22.6304-19.2512 22.6304 10.6496 0 19.2512 10.3424 19.2512 22.6304 0-12.6976 8.6016-22.6304 19.2512-22.6304-10.6496 0-19.2512-10.3424-19.2512-22.6304zM142.336 773.2224c0 14.4384-9.728 25.8048-21.9136 25.8048 12.0832 0 21.9136 11.776 21.9136 25.8048 0-14.4384 9.728-25.8048 21.9136-25.8048-12.1856 0-21.9136-11.6736-21.9136-25.8048z" fill="#F5D321" p-id="5481"></path><path d="M188.928 377.0368c1.1264-0.512 2.2528-1.1264 2.7648-1.6384 0.512-1.6384 1.6384-3.3792 2.2528-5.0176l-5.0176 6.656z" fill="#FFFFFF" p-id="5482"></path><path d="M243.6096 479.6416a268.288 96.3584 0 1 0 536.576 0 268.288 96.3584 0 1 0-536.576 0Z" fill="#FFFFFF" p-id="5483"></path><path d="M722.2272 383.2832H571.904c-9.216 0-18.432 4.608-24.576 12.288-7.68 10.752-21.504 18.432-35.328 18.432s-27.648-7.68-35.328-18.432c-6.144-7.68-13.824-12.288-24.576-12.288H301.7728c-49.152 0-90.5216 39.936-90.5216 90.5216V788.48c0 49.152 39.936 90.5216 90.5216 90.5216h130.4576c7.68 0 13.824 3.072 19.968 7.68 15.36 13.824 36.864 23.04 59.904 23.04s43.008-9.216 59.904-23.04c4.608-4.608 12.288-7.68 19.968-7.68h130.4576c49.152 0 90.5216-39.936 90.5216-90.5216V473.9072c-0.1024-50.688-40.0384-90.624-90.7264-90.624z m46.08 405.1968c0 24.576-19.968 44.544-44.544 44.544H573.44c-9.216 0-18.432 4.608-24.576 12.288-7.68 10.752-21.504 18.432-35.328 18.432s-27.648-7.68-35.328-18.432c-6.144-7.68-13.824-12.288-24.576-12.288H303.3088c-24.576 0-44.544-19.968-44.544-44.544V473.9072c0-24.576 19.968-44.544 44.544-44.544h130.4576c7.68 0 13.824 3.072 19.968 7.68 15.36 13.824 36.864 23.04 59.904 23.04s43.008-9.216 59.904-23.04c4.608-4.608 12.288-7.68 19.968-7.68H723.968c24.576 0 44.544 19.968 44.544 44.544V788.48z m0 0" fill="#003399" p-id="5484"></path><path d="M513.536 665.7024c-12.288 0-23.04-10.752-23.04-23.04V433.9712c0-12.288 10.752-23.04 23.04-23.04s23.04 10.752 23.04 23.04v208.6912c0 12.288-10.752 23.04-23.04 23.04z m0 0" fill="#003399" p-id="5485"></path></svg>