<?xml version="1.0" standalone="no"?><!DOCTYPE svg PUBLIC "-//W3C//DTD SVG 1.1//EN" "http://www.w3.org/Graphics/SVG/1.1/DTD/svg11.dtd"><svg t="1740731699507" class="icon" viewBox="0 0 1024 1024" version="1.1" xmlns="http://www.w3.org/2000/svg" p-id="8342" xmlns:xlink="http://www.w3.org/1999/xlink" width="200" height="200"><path d="M768 85.333333a170.666667 170.666667 0 0 1 170.666667 170.666667v512a170.666667 170.666667 0 0 1-170.666667 170.666667H256a170.666667 170.666667 0 0 1-170.666667-170.666667V256a170.666667 170.666667 0 0 1 170.666667-170.666667h512z m0 85.333334H256a85.333333 85.333333 0 0 0-85.12 78.933333L170.666667 256v512a85.333333 85.333333 0 0 0 78.933333 85.12L256 853.333333h512a85.333333 85.333333 0 0 0 85.12-78.933333L853.333333 768V256a85.333333 85.333333 0 0 0-78.933333-85.12L768 170.666667z" fill="#333333" p-id="8343"></path><path d="M456.832 414.165333L358.997333 512l97.834667 97.834667a42.624 42.624 0 1 1-60.330667 60.330666l-128-128a42.538667 42.538667 0 0 1 0-60.330666l128-128a42.624 42.624 0 1 1 60.330667 60.330666z m298.666667 128l-128 128a42.624 42.624 0 1 1-60.330667-60.330666L665.002667 512l-97.834667-97.834667a42.624 42.624 0 1 1 60.330667-60.330666l128 128a42.624 42.624 0 0 1 0 60.330666z" fill="#027AFF" p-id="8344"></path></svg>