<?xml version="1.0" standalone="no"?><!DOCTYPE svg PUBLIC "-//W3C//DTD SVG 1.1//EN" "http://www.w3.org/Graphics/SVG/1.1/DTD/svg11.dtd"><svg t="1740731751841" class="icon" viewBox="0 0 1024 1024" version="1.1" xmlns="http://www.w3.org/2000/svg" p-id="9517" xmlns:xlink="http://www.w3.org/1999/xlink" width="200" height="200"><path d="M768 73.142857L950.857143 256v219.428571a36.571429 36.571429 0 0 1-72.557714 6.582858L877.714286 475.428571V292.571429h-109.714286a36.571429 36.571429 0 0 1-36.571429-36.571429V146.285714H146.285714v731.428572h402.285715a36.571429 36.571429 0 0 1 6.582857 72.557714L548.571429 950.857143H146.285714a73.142857 73.142857 0 0 1-73.142857-73.142857V146.285714a73.142857 73.142857 0 0 1 73.142857-73.142857h621.714286z m-219.428571 512a36.571429 36.571429 0 0 1 0 73.142857h-219.428572a36.571429 36.571429 0 0 1 0-73.142857h219.428572z m146.285714-146.285714a36.571429 36.571429 0 0 1 0 73.142857h-365.714286a36.571429 36.571429 0 0 1 0-73.142857h365.714286z m-73.142857-146.285714a36.571429 36.571429 0 0 1 0 73.142857h-292.571429a36.571429 36.571429 0 0 1 0-73.142857h292.571429z" fill="#4C5D7C" p-id="9518"></path><path d="M778.532571 617.691429l88.649143 51.2a21.942857 21.942857 0 0 1 8.045715 29.988571l-122.221715 211.675429a21.942857 21.942857 0 0 1-10.971428 9.508571l-76.580572 29.988571a21.942857 21.942857 0 0 1-29.696-17.115428l-12.434285-80.530286a21.942857 21.942857 0 0 1 2.633142-14.336l122.587429-212.333714a21.942857 21.942857 0 0 1 29.988571-8.045714zM914.285714 877.714286a36.571429 36.571429 0 1 1 0 73.142857h-73.142857a36.571429 36.571429 0 1 1 0-73.142857h73.142857z" fill="#1476BB" p-id="9519"></path></svg>